<svg fill="none" viewBox="0 0 103 25" xmlns="http://www.w3.org/2000/svg"><g fill="#404041"><path d="m53.402 24.2v-10.4c0-1.4-.6-2.7-1.5-3.6s-2.2-1.5-3.6-1.5-2.7.6-3.6 1.5-1.5 2.2-1.5 3.6v3.4c-.5-.1-1-.2-1.6-.2-.5 0-1 0-1.5.1v-3.4c0-2.2.9-4.3 2.4-5.7 1.5-1.5 3.5-2.4 5.7-2.4s4.3.9 5.7 2.4c1.5 1.5 2.4 3.5 2.4 5.7v10.4c-.5-.1-.9-.1-1.4-.1-.4.1-.9.1-1.5.2zm-49.8-17.8v10.2c0 1.4.6 2.7 1.5 3.6s2.2 1.5 3.6 1.5 2.7-.6 3.6-1.5 1.5-2.2 1.5-3.6v-10.2c.5.1 1 .1 1.5.1s1 0 1.5-.1v10.3c0 1.4.6 2.7 1.5 3.6s2.2 1.5 3.6 1.5 2.7-.6 3.6-1.5 1.5-2.2 1.5-3.6v-10.3c.5.1 1 .1 1.5.1s1-.1 1.5-.1v10.3c0 2.2-.9 4.3-2.4 5.7-1.5 1.5-3.5 2.4-5.7 2.4s-4.3-.9-5.7-2.4c-.3-.3-.6-.7-.9-1-.3.4-.6.7-.9 1-1.5 1.5-3.5 2.4-5.7 2.4s-4.3-.9-5.7-2.4c-1.5-1.5-2.4-3.5-2.4-5.7v-10.4c.6.1 1.2.2 1.8.2.4 0 .8 0 1.2-.1zm95.3 17.8v-10.4c0-1.4-.6-2.7-1.5-3.6s-2.2-1.5-3.6-1.5-2.7.6-3.6 1.5-1.5 2.2-1.5 3.6v10.4c-.5-.1-1-.1-1.5-.1s-1 .1-1.6.1v-10.4c0-2.2.9-4.3 2.4-5.7 1.5-1.5 3.5-2.4 5.7-2.4s4.3.9 5.7 2.4c1.5 1.5 2.4 3.5 2.4 5.7v10.4c-.5-.1-.9-.1-1.4-.1-.4 0-1 0-1.5.1zm-35.902-24v24c-.4-.1-.9-.1-1.3-.1-.6 0-1.2.1-1.7.2v-24c.5.1 1 .1 1.5.1s1-.1 1.5-.2zm-26.298 6.2v17.8c-.5-.1-1-.2-1.6-.2-.5 0-1 0-1.5.1v-17.7c.5.1 1 .1 1.4.1.6 0 1.2 0 1.7-.1zm.001-6.2v3.6c-.5.2-1 .3-1.6.3-.5 0-1-.1-1.4-.2v-3.7c.5.1 1 .1 1.5.1.5.1 1 0 1.5-.1z"/><path d="m49.9 17.1v7c-.5 0-.9-.1-1.4-.1-.6 0-1.2.1-1.7.2v-7.1c.5.1 1 .1 1.5.1.6.1 1.1 0 1.6-.1zm24.5 4.6c1.4 0 2.7-.6 3.6-1.5s1.5-2.2 1.5-3.6v-2.9c0-1.4-.6-2.7-1.5-3.6s-2.2-1.5-3.6-1.5-2.7.6-3.6 1.5-1.5 2.2-1.5 3.6v2.9c0 1.4.6 2.7 1.5 3.6.9 1 2.2 1.5 3.6 1.5zm0 3.1c-2.2 0-4.3-.9-5.7-2.4-1.5-1.5-2.4-3.5-2.4-5.7v-2.9c0-2.2.9-4.3 2.4-5.7 1.5-1.5 3.5-2.4 5.7-2.4s4.3.9 5.7 2.4c1.5 1.5 2.4 3.5 2.4 5.7v2.9c0 2.2-.9 4.3-2.4 5.7-1.5 1.5-3.5 2.4-5.7 2.4z"/></g></svg>