<svg xmlns="http://www.w3.org/2000/svg" width="65" height="64" fill="none"><path fill="#4667FF" fill-rule="evenodd" d="m27.831 24.901 8.393-9.063c.765-.88 3.004-3.68 4.017-3.48 1.012.198 2.54 5.235 2.54 5.235.52 1.482.764 3.17 0 4.048l-8.363 11.92c-.018.02 0 30.409 0 30.409H14.422s.054-30.348 0-30.41L5.905 21.642c-.764-.879-.52-2.566 0-4.048 0 0 1.527-5.037 2.54-5.235 1.012-.2 3.253 2.6 4.017 3.48l8.436 9.108a9.161 9.161 0 0 1 6.933-.045ZM24.42 11.143a6.552 6.552 0 0 1 6.55 6.549 6.553 6.553 0 0 1-6.55 6.55 6.554 6.554 0 0 1-6.55-6.55 6.553 6.553 0 0 1 6.55-6.55ZM17.423 5.102a2.277 2.277 0 0 0-3.219 0 2.275 2.275 0 0 0-.004 3.22l2.379 2.383a2.279 2.279 0 0 0 3.225-3.22l-2.38-2.383ZM34.486 8.336c.89-.888.888-2.33 0-3.219a2.275 2.275 0 0 0-3.22-.004l-2.383 2.379a2.279 2.279 0 0 0 3.22 3.225l2.383-2.38ZM26.623 3.22A2.277 2.277 0 0 0 24.347.946a2.275 2.275 0 0 0-2.28 2.273l-.003 3.367a2.279 2.279 0 0 0 4.557.005l.002-3.37Z" clip-rule="evenodd"/><path fill="#DCEBF9" fill-rule="evenodd" d="M24.363 60.275V64H4.367v-3.725c0-6.093 4.476-11.032 9.997-11.032s9.998 4.939 9.998 11.032Zm-9.998-24.132a6.553 6.553 0 0 1 6.55 6.55 6.553 6.553 0 0 1-6.55 6.55 6.553 6.553 0 0 1-6.55-6.55 6.553 6.553 0 0 1 6.55-6.55Z" clip-rule="evenodd"/><path fill="#0230A8" fill-rule="evenodd" d="m45.723 45.899 7.8-8.423c.737-.846 2.891-3.54 3.866-3.348.974.19 2.442 5.037 2.442 5.037.501 1.425.735 3.048 0 3.895l-8.044 11.409c-.014.015 0 9.512 0 9.512H31.793v-7.939c0-6.091 4.476-11.031 9.997-11.031 1.397 0 2.726.316 3.933.888ZM41.79 31.911a6.553 6.553 0 0 1 6.55 6.55 6.552 6.552 0 0 1-6.55 6.55 6.553 6.553 0 0 1-6.55-6.55 6.554 6.554 0 0 1 6.55-6.55Z" clip-rule="evenodd"/></svg>