<svg xmlns="http://www.w3.org/2000/svg" width="64" height="64" fill="none"><path fill="#4667FF" d="M54.133 27.853v12.423H39.24V27.853c0-4.59 3.335-8.31 7.447-8.31 4.113 0 7.447 3.72 7.447 8.31ZM46.686 9.674c2.693 0 4.88 2.211 4.88 4.934 0 2.723-2.187 4.934-4.88 4.934s-4.879-2.21-4.879-4.934c0-2.723 2.186-4.934 4.88-4.934Z"/><path fill="#4667FF" fill-rule="evenodd" d="M27.94 27.853v12.44H13.048v-12.44c0-4.59 3.334-8.31 7.447-8.31 4.112 0 7.447 3.72 7.447 8.31ZM20.495 9.674c2.692 0 4.879 2.211 4.879 4.934 0 2.723-2.187 4.934-4.88 4.934-2.692 0-4.878-2.21-4.878-4.934 0-2.723 2.186-4.934 4.879-4.934Z" clip-rule="evenodd"/><path fill="#0230A8" d="M43.862 27.853v13.973h-20.03V27.853c0-5.68 4.16-9.869 9.692-9.869 5.531 0 10.338 4.19 10.338 9.869ZM33.59 5c3.401 0 6.163 2.909 6.163 6.492s-2.762 6.492-6.163 6.492c-3.402 0-6.163-2.909-6.163-6.492S30.188 5 33.59 5Z"/><path fill="#DCEBF9" fill-rule="evenodd" d="M57.312 33.802c-.325.1-8.86 4.472-13.205 5.825l-38.199.043v16.557s37.28-1.915 37.587-1.963c1.694 0 2.993-.146 4.034-1.226l15.248-12.325a4.343 4.343 0 0 0 1.221-3.144 4.347 4.347 0 0 0-1.156-3.03 4.372 4.372 0 0 0-5.53-.737Z" clip-rule="evenodd"/><path fill="#0230A8" fill-rule="evenodd" d="M9.881 37.82a1.454 1.454 0 0 0-1.456-1.463H1.61c-.81 0-1.47.656-1.475 1.464L.009 58.004a1.454 1.454 0 0 0 1.456 1.464h6.816c.809 0 1.47-.656 1.474-1.464l.126-20.183Z" clip-rule="evenodd"/></svg>