<svg xmlns="http://www.w3.org/2000/svg" width="65" height="64" fill="none"><path fill="#DCEBF9" fill-rule="evenodd" d="M30.497 11.43c2.023-3.063 5.15-5.03 8.656-5.03 5.708 0 10.41 5.21 10.984 11.881 4.686 1.297 8.13 5.598 8.13 10.698 0 6.125-4.968 11.097-11.088 11.097H18.154c-6.119 0-11.087-4.972-11.087-11.098 0-5.69 4.29-10.387 9.807-11.023a7.7 7.7 0 0 1-.037-.754c0-4.364 3.636-7.907 8.114-7.907a8.2 8.2 0 0 1 5.546 2.137Z" clip-rule="evenodd"/><path fill="#0230A8" fill-rule="evenodd" d="M48.659 29.428c0-2.12-1.72-3.841-3.838-3.841H20.513a3.842 3.842 0 0 0-3.838 3.841v24.33c0 2.12 1.72 3.842 3.838 3.842h24.308a3.842 3.842 0 0 0 3.838-3.842v-24.33Z" clip-rule="evenodd"/><path fill="#DCEBF9" fill-rule="evenodd" d="m25.45 41.594 3.284-3.68-1.786-1.653-3.53 3.955a2.077 2.077 0 0 0 0 2.756l3.53 3.955 1.786-1.654-3.284-3.68ZM33.102 32.706 29.08 49.912l2.348.569 4.021-17.206-2.347-.569ZM39.884 41.594l-3.284 3.68 1.786 1.653 3.53-3.955a2.077 2.077 0 0 0 0-2.756l-3.53-3.955-1.786 1.653 3.284 3.68Z" clip-rule="evenodd"/></svg>