<svg xmlns="http://www.w3.org/2000/svg" width="65" height="64" fill="none"><g clip-path="url(#a)"><path fill="#4667FF" d="M38.733 57.6h-12.8V64h-6.4v-6.4h-9.6a3.201 3.201 0 0 1-3.2-3.2v-9.6h-6.4v-6.4h6.4V25.6h-6.4v-6.4h6.4V9.6a3.201 3.201 0 0 1 3.2-3.2h9.6V0h6.4v6.4h12.8V0h6.4v6.4h9.6a3.201 3.201 0 0 1 3.2 3.2v9.6h6.4v6.4h-6.4v12.8h6.4v6.4h-6.4v9.6a3.201 3.201 0 0 1-3.2 3.2h-9.6V64h-6.4v-6.4Z"/><path fill="#DCEBF9" d="M50.733 13.6h-36.8v36.8h36.8V13.6Z"/><path fill="#0230A8" d="M43 21.334H21.667v21.333H43V21.333Z"/></g><defs><clipPath id="a"><path fill="#fff" d="M.333 0h64v64h-64z"/></clipPath></defs></svg>