<svg xmlns="http://www.w3.org/2000/svg" width="65" height="64" fill="none"><g fill-rule="evenodd" clip-path="url(#a)" clip-rule="evenodd"><path fill="#4667FF" d="M57.865 33.89s-1.873-18.484-3.035-19.646c-1.162-1.162-19.638-3.026-19.638-3.026L4.374 42.037l22.672 22.672 30.819-30.818Z"/><path fill="#DCEBF9" d="M59.56 23.362S57.688 4.877 56.526 3.715C55.364 2.553 36.888.69 36.888.69L6.069 31.508l22.673 22.673L59.56 23.362Z"/><path fill="#0230A8" d="M47.479 17.844a1.604 1.604 0 0 0-2.267 0L24.806 38.249a1.604 1.604 0 0 0 2.267 2.268L47.48 20.11a1.604 1.604 0 0 0 0-2.267Zm-5.072-5.072a1.604 1.604 0 0 0-2.267 0L19.734 33.177a1.604 1.604 0 0 0 2.268 2.268l20.405-20.406a1.604 1.604 0 0 0 0-2.267Z"/></g><defs><clipPath id="a"><path fill="#fff" d="M.667 0h64v64h-64z"/></clipPath></defs></svg>