<svg xmlns="http://www.w3.org/2000/svg" fill="none" viewBox="0 0 49 57"><path fill="#0230A8" d="M37.843.282c-5.962 0-10.848 4.895-10.848 10.869 0 2.308.731 4.453 1.97 6.219-.008-.01 7.027 12.205 7.027 12.205a.7.7 0 0 0 .05.076c.71.933 1.368 1.204 1.93 1.148.538-.054 1.104-.454 1.67-1.225a.484.484 0 0 0 .041-.063l7.776-13.292.01-.017c.175-.318.312-.655.433-1a10.76 10.76 0 0 0 .79-4.051c0-5.974-4.885-10.869-10.849-10.869Zm0 6.185a4.653 4.653 0 0 1 4.677 4.684 4.651 4.651 0 0 1-4.677 4.683 4.652 4.652 0 0 1-4.677-4.683 4.654 4.654 0 0 1 4.677-4.684Z"/><path fill="#4667FF" d="M24.267 9.032C11.229 9.046.667 19.62.667 32.657c0 13.048 10.577 23.625 23.625 23.625 13.047 0 23.625-10.577 23.625-23.625-.01-2.623-.602-6.413-2.19-9.83L44.251 25.3c.846 2.376 1.195 4.865 1.268 6.176h-5.154s-1.343 1.663-3.274 1.663c-1.89 0-3.637-1.663-3.637-1.663h-7.982v-7.858h3.363l-1.217-2.363h-2.146v-3.662c-.9-2.61-1.188-4.3-1.181-8.56h-.025ZM23.11 11.81v9.445h-7.914a24.156 24.156 0 0 1 1.61-3.662c1.764-3.202 3.975-5.205 6.304-5.783Zm-5.443.64c-1.098 1.11-2.084 2.466-2.93 4.004-.794 1.44-1.477 3.055-2.038 4.801H6.34a21.273 21.273 0 0 1 11.326-8.806ZM5.04 23.617h6.997a39.166 39.166 0 0 0-1.041 7.858H3.063c.147-2.722.818-5.39 1.977-7.857Zm9.438 0h8.632v7.858h-9.749c.1-2.804.493-5.46 1.117-7.858ZM3.063 33.838h7.92a39.63 39.63 0 0 0 .942 7.858H5.04a21.163 21.163 0 0 1-1.977-7.857Zm10.283 0h9.764v7.858h-8.75a36.963 36.963 0 0 1-1.014-7.857Zm12.127 0h10.202a36.969 36.969 0 0 1-1.014 7.858h-9.188V33.84Zm12.557 0h7.49a21.165 21.165 0 0 1-1.977 7.858h-6.451c.553-2.446.877-5.091.938-7.857ZM6.341 44.059h6.207c.587 1.93 1.323 3.705 2.188 5.276a18.96 18.96 0 0 0 2.294 3.316A21.284 21.284 0 0 1 6.34 44.06v-.001Zm8.692 0h8.077v9.828c-.145-.008-.289-.023-.433-.033-2.17-.71-4.217-2.656-5.87-5.659a24.491 24.491 0 0 1-1.774-4.135Zm10.44 0h8.515a24.583 24.583 0 0 1-1.773 4.136c-1.62 2.942-3.618 4.871-5.737 5.615-.335.034-.67.059-1.005.077V44.06Zm10.997 0h5.772a21.295 21.295 0 0 1-10.03 8.336 19.245 19.245 0 0 0 2.072-3.06c.865-1.57 1.6-3.345 2.186-5.275Z"/></svg>
