<svg xmlns="http://www.w3.org/2000/svg" fill="none" viewBox="0 0 56 57"><g clip-path="url(#a)"><path fill="#4667FF" fill-rule="evenodd" d="M20.564 8.462c.147 1.144.326 2.236.533 3.278l-.012.004c-1.716.974-3.319 2.731-4.665 5.175a24.757 24.757 0 0 0-1.637 3.726h8.051v-2.728a31.35 31.35 0 0 0 2.457 5.132h-.052l-.001 7.995h7.733c1.85 1.144 3.16 1.534 3.16 1.534l.03.009a3.7 3.7 0 0 0 1.062.152l-.18-.007.217.008a3.71 3.71 0 0 0 1.047-.164c.092-.028 1.375-.417 3.178-1.533h4.15c-.054-1.003-.178-2-.37-2.982.49-.48.986-1.01 1.478-1.591.157-.184.313-.374.47-.569a23.69 23.69 0 0 1 .86 6.345c0 13.186-10.85 24.036-24.036 24.036C10.85 56.282 0 45.432 0 32.246c0-12.01 8.997-22.08 20.564-23.784Zm-5.948 35.384h8.218v9.998c-.148-.009-.294-.024-.44-.034-2.207-.721-4.29-2.702-5.974-5.757a25.205 25.205 0 0 1-1.804-4.207Zm10.622 0h8.664c-.51 1.545-1.117 2.96-1.804 4.207-1.649 2.993-3.68 4.956-5.837 5.713-.34.033-.682.06-1.023.078v-9.998Zm-19.465 0h6.315c.598 1.963 1.346 3.768 2.227 5.367a19.223 19.223 0 0 0 2.334 3.373 21.652 21.652 0 0 1-10.876-8.74Zm30.654 0H42.3a21.682 21.682 0 0 1-10.205 8.48 19.668 19.668 0 0 0 2.108-3.113c.88-1.6 1.63-3.404 2.224-5.367Zm1.587-10.4h7.62a21.535 21.535 0 0 1-2.01 7.996H37.06c.563-2.489.893-5.18.954-7.995Zm-35.575 0h8.058c.061 2.817.394 5.508.958 7.996H4.45a21.537 21.537 0 0 1-2.01-7.995Zm10.461 0h9.934v7.996h-8.902a37.652 37.652 0 0 1-1.032-7.995Zm12.338 0h10.38c-.067 2.845-.432 5.544-1.032 7.996h-9.348v-7.995ZM4.45 23.05h7.117c-.598 2.482-.964 5.172-1.059 7.995H2.44c.149-2.77.831-5.484 2.01-7.995h.002Zm9.6 0h8.783v7.994h-9.918c.101-2.852.501-5.554 1.135-7.994Zm23.046 7.596-.115-.013c.039.005.076.01.115.012Zm-1.54-.562.034.017.059.027.05.024.022.011.057.027.049.022.02.009.054.024.046.021.018.007.095.042.015.007.09.04.098.04.09.034.087.035.071.028.066.024.047.017.047.016.059.021.02.006.044.012.028.007.036.009.036.008.028.006-.036-.009-.015-.003-.025-.005-.016-.003-.04-.011-.04-.011-.02-.006-.059-.02-.1-.036-.063-.023-.07-.028-.081-.03-.088-.037-.097-.04-.047-.02-.057-.025-.052-.02-.06-.029-.055-.024-.064-.029-.059-.026-.068-.032-.061-.03-.073-.034-.02-.01Zm-9.22-9.438.055.102.023.044.02.035.024.046.029.053.037.071.034.062.033.061.04.07.029.051.023.045.02.033.025.043.026.05.021.037.02.033.054.095.015.025.059.102.01.017.065.112.144.24.067.11.07.113.015.025.055.088.02.032.05.08.025.038.045.071.03.048.04.063.036.054.036.054.04.062.03.046.045.068.017.025-.036-.056-.042-.063-.032-.048-.042-.063-.032-.05-.042-.063-.032-.052-.04-.064-.034-.05-.04-.065-.032-.05-.042-.067-.03-.05-.044-.07-.029-.047-.072-.119-.071-.12-.073-.12-.07-.122-.029-.048-.043-.075-.03-.05-.041-.074-.03-.053-.041-.07-.03-.055-.04-.073-.03-.054-.04-.073-.031-.055-.04-.074-.03-.056-.04-.074-.028-.055-.042-.077-.027-.049Zm-9.04-8.96c-1.118 1.13-2.12 2.51-2.982 4.075-.808 1.466-1.502 3.109-2.074 4.885H5.773a21.645 21.645 0 0 1 11.524-8.96Zm6.14.976-.055-.231.049.209.01.039.017.076.028.119.013.051.017.074.026.107.008.037.007.027.019.069.023.097.011.043.009.034.016.063.023.089.012.05.01.037.015.058.021.08.016.059.01.042.015.051.02.073.017.067.013.046.012.044.018.066.021.074.014.048.011.04.017.06.024.08.014.053.01.034.015.051.026.09.016.055.008.028.014.043.03.1.016.056.007.023.011.037.035.112.017.054.014.047.04.126.015.05.011.035.048.149.02.061.065.197c.047.144.096.288.146.432l.067.19.071.201.011.034.02.05.041.114.016.045.02.052.037.1.02.055.02.053.034.088.014.038.01.026.02.052.03.076.016.045.013.03.02.05.026.067.02.05.013.035.018.045.024.06.023.053.016.042.017.04.02.053.026.059.018.044.015.038-.033-.082-.046-.112-.034-.082-.046-.113-.032-.08-.046-.118-.032-.08-.046-.12-.03-.078-.048-.126-.027-.075-.05-.133-.026-.07-.051-.141-.023-.062-.057-.16-.016-.046-.073-.207-.074-.215-.072-.217-.071-.215-.014-.043-.055-.173-.019-.061-.049-.156-.022-.071-.046-.15-.024-.078-.043-.143-.024-.082-.041-.142-.024-.087-.04-.14-.026-.088-.039-.14-.025-.09-.037-.14-.025-.093-.037-.14-.025-.094-.035-.14-.025-.096-.034-.14-.026-.096-.034-.144-.023-.096-.035-.148-.022-.093Z" clip-rule="evenodd"/><path fill="#0230A8" d="M50.598.282H23.836a1.64 1.64 0 0 0-1.632 1.632v.015c.117 12.056 3.59 19.342 7.164 23.561 3.573 4.22 7.384 5.403 7.384 5.403a1.633 1.633 0 0 0 .941-.004c.15-.045 3.855-1.22 7.457-5.461 3.604-4.24 7.08-11.536 7.08-23.514A1.64 1.64 0 0 0 50.598.282ZM25.6 3.546h11.617V27.54l-.004.001c-.6-.21-2.702-1.03-5.356-4.161-2.895-3.419-5.845-9.505-6.257-19.835Z"/></g><defs><clipPath id="a"><path fill="#fff" d="M0 0h56v56H0z" transform="translate(0 .282)"/></clipPath></defs></svg>
