<svg xmlns="http://www.w3.org/2000/svg" width="64" height="64" fill="none"><path fill="#0230A8" d="M32 37.594a5.6 5.6 0 1 0 0-11.2 5.6 5.6 0 0 0 0 11.2Z"/><path fill="#4667FF" d="M29.105 10.597v10.86c0 .519.421.94.938.94h3.875c.54 0 .976-.437.976-.976V10.597h2.71a.82.82 0 0 0 .377-.094.838.838 0 0 0 .29-.261.853.853 0 0 0 .137-.368.86.86 0 0 0-.048-.392l-.072-.149L32.68.38a.825.825 0 0 0-.258-.258.816.816 0 0 0-.342-.117.796.796 0 0 0-.66.245l-.104.13-5.606 8.954a.82.82 0 0 0-.122.442c0 .189.062.373.18.52a.794.794 0 0 0 .465.285l.16.017h2.712ZM34.894 53.403v-10.86a.94.94 0 0 0-.938-.94h-3.875a.976.976 0 0 0-.976.977v10.823h-2.71a.82.82 0 0 0-.377.094.838.838 0 0 0-.29.261.853.853 0 0 0-.137.368.86.86 0 0 0 .048.392l.072.149 5.608 8.954a.824.824 0 0 0 .258.258c.104.064.22.104.342.117a.796.796 0 0 0 .66-.245l.104-.13 5.607-8.954a.82.82 0 0 0 .121-.442.829.829 0 0 0-.18-.52.794.794 0 0 0-.465-.285l-.16-.017h-2.712ZM14.818 18.913l7.68 7.679a.94.94 0 0 0 1.327 0l2.74-2.74a.976.976 0 0 0 0-1.38l-7.653-7.653 1.916-1.916a.819.819 0 0 0 .2-.334.838.838 0 0 0 .02-.389.851.851 0 0 0-.163-.357.86.86 0 0 0-.31-.244l-.157-.054L10.121 9.16a.825.825 0 0 0-.365 0 .816.816 0 0 0-.325.16.796.796 0 0 0-.294.64l.02.164 2.367 10.297a.82.82 0 0 0 .226.398c.133.133.308.22.495.24a.793.793 0 0 0 .53-.127l.125-.1 1.918-1.918ZM49.18 45.087l-7.678-7.68a.94.94 0 0 0-1.328 0l-2.74 2.74a.976.976 0 0 0 0 1.38l7.653 7.654-1.915 1.915a.82.82 0 0 0-.2.334.84.84 0 0 0-.021.39c.026.13.081.253.163.357a.86.86 0 0 0 .311.243l.156.054L53.88 54.84c.12.027.244.027.364 0a.816.816 0 0 0 .325-.16.797.797 0 0 0 .294-.64l-.02-.164-2.366-10.296a.82.82 0 0 0-.227-.398.828.828 0 0 0-.495-.24.794.794 0 0 0-.53.127l-.125.1-1.918 1.918ZM10.597 34.895h10.86a.94.94 0 0 0 .94-.938v-3.875a.976.976 0 0 0-.976-.976H10.597v-2.71a.82.82 0 0 0-.094-.377.838.838 0 0 0-.261-.29.853.853 0 0 0-.368-.137.86.86 0 0 0-.392.048l-.149.072L.38 31.32a.825.825 0 0 0-.258.258.816.816 0 0 0-.117.342.796.796 0 0 0 .245.66l.13.103 8.954 5.607a.82.82 0 0 0 .442.122.829.829 0 0 0 .52-.18.794.794 0 0 0 .285-.465l.017-.16v-2.712ZM53.403 29.106h-10.86a.94.94 0 0 0-.94.937v3.876c0 .54.437.976.976.976h10.824v2.709c0 .131.033.26.094.378a.838.838 0 0 0 .26.29c.111.073.238.12.369.137a.86.86 0 0 0 .392-.048l.149-.072 8.954-5.609a.825.825 0 0 0 .258-.257.816.816 0 0 0 .117-.343.796.796 0 0 0-.245-.66l-.13-.103-8.954-5.607a.82.82 0 0 0-.442-.122.829.829 0 0 0-.52.181.794.794 0 0 0-.285.464l-.017.16v2.713ZM18.913 49.182l7.679-7.68a.94.94 0 0 0 0-1.327l-2.74-2.74a.976.976 0 0 0-1.38 0l-7.653 7.653-1.916-1.916a.819.819 0 0 0-.334-.2.838.838 0 0 0-.389-.02.851.851 0 0 0-.357.163.86.86 0 0 0-.244.31l-.054.157L9.16 53.879a.825.825 0 0 0 0 .365c.029.119.083.23.16.325s.174.17.286.22c.11.052.232.076.354.074l.164-.02 10.297-2.367a.82.82 0 0 0 .398-.226.828.828 0 0 0 .24-.495.793.793 0 0 0-.127-.53l-.1-.126-1.918-1.917ZM45.087 14.82l-7.679 7.679a.94.94 0 0 0 0 1.327l2.74 2.74a.976.976 0 0 0 1.38 0l7.653-7.653 1.916 1.916a.82.82 0 0 0 .334.2c.125.037.259.044.389.02a.852.852 0 0 0 .357-.163.86.86 0 0 0 .244-.31l.054-.157 2.366-10.298a.827.827 0 0 0 0-.364.815.815 0 0 0-.16-.325.797.797 0 0 0-.64-.294l-.164.02-10.297 2.367a.82.82 0 0 0-.398.226.828.828 0 0 0-.24.495.793.793 0 0 0 .127.53l.1.126 1.919 1.917Z"/></svg>