<svg xmlns="http://www.w3.org/2000/svg" fill="none" viewBox="0 0 57 57"><g fill-rule="evenodd" clip-path="url(#a)" clip-rule="evenodd"><path fill="#4667FF" d="M26.445 50.682H5.282a4.952 4.952 0 0 1-4.949-4.95v-8.603c0-1.458.632-2.768 1.635-3.674A4.94 4.94 0 0 1 .333 29.78v-8.603c0-1.456.63-2.765 1.63-3.67a4.94 4.94 0 0 1-1.63-3.671V5.233a4.952 4.952 0 0 1 4.95-4.95h39.119a4.952 4.952 0 0 1 4.949 4.95v8.603a4.94 4.94 0 0 1-1.63 3.67 4.94 4.94 0 0 1 1.63 3.671v4.36a17.636 17.636 0 0 0-2.578-1.157v-3.203a2.373 2.373 0 0 0-2.371-2.373H5.282a2.373 2.373 0 0 0-2.37 2.373v8.603a2.372 2.372 0 0 0 2.37 2.372h20.492c-.477.829-.89 1.7-1.229 2.605H5.282a2.372 2.372 0 0 0-2.37 2.372v8.603a2.373 2.373 0 0 0 2.37 2.373H25a17.5 17.5 0 0 0 1.446 2.577Zm20.328-45.45v8.604a2.372 2.372 0 0 1-2.371 2.371H5.282a2.372 2.372 0 0 1-2.37-2.371V5.233a2.373 2.373 0 0 1 2.37-2.373h39.12a2.373 2.373 0 0 1 2.37 2.373Z"/><path fill="#0230A8" d="M56.333 40.882c0-8.448-6.95-15.4-15.395-15.4-8.446 0-15.396 6.952-15.396 15.4s6.95 15.4 15.396 15.4c8.445 0 15.395-6.952 15.395-15.4Zm-9.054-1.21c.321.321.502.757.502 1.211a1.72 1.72 0 0 1-1.711 1.712c-.454 0-.89-.18-1.21-.501l-2.212-2.213v6.135a1.72 1.72 0 0 1-1.71 1.71 1.72 1.72 0 0 1-1.711-1.71V39.88l-2.212 2.212c-.32.32-.756.5-1.21.5a1.72 1.72 0 0 1-1.71-1.71c0-.455.18-.89.501-1.211l5.132-5.134a1.719 1.719 0 0 1 2.42 0l5.131 5.134v.002Zm-36.158 4.834a3.075 3.075 0 1 0 0-6.15 3.075 3.075 0 0 0 0 6.15Zm0-15.952a3.075 3.075 0 1 0 0-6.15 3.075 3.075 0 0 0 0 6.15Zm0-15.944a3.075 3.075 0 1 0 0-6.151 3.075 3.075 0 0 0 0 6.15Z"/></g><defs><clipPath id="a"><path fill="#fff" d="M0 0h56v56H0z" transform="translate(.333 .282)"/></clipPath></defs></svg>
